<svg xmlns="http://www.w3.org/2000/svg" viewBox="0 0 64 64" role="img" aria-label="Onion favicon">
  <defs>
    <linearGradient id="g" x1="0" y1="0" x2="1" y2="1">
      <stop offset="0" stop-color="#7A3FF2"/>
      <stop offset="1" stop-color="#4a2cb8"/>
    </linearGradient>
  </defs>

  <!-- outer onion -->
  <path fill="url(#g)" d="M32 6c3 6 7 9 12 12 7 4 12 11 12 20 0 14-11 24-24 24S8 52 8 38c0-9 5-16 12-20 5-3 9-6 12-12z"/>

  <!-- inner onion highlight -->
  <path fill="#ffffff" opacity="0.28" d="M32 12c2 4 5 6 9 9 5 3 9 8 9 16 0 10-8 18-18 18S14 47 14 37c0-8 4-13 9-16 4-3 7-5 9-9z"/>

  <!-- small stem -->
  <path fill="#ffffff" opacity="0.9" d="M32 5c-3 3-5 6-6 9 2-1 4-2 6-2s4 1 6 2c-1-3-3-6-6-9z"/>
</svg>
